<svg xmlns="http://www.w3.org/2000/svg" width="927.673" height="470.08" viewBox="0 0 245.447 124.375"><g fill-rule="evenodd" paint-order="stroke fill markers"><path d="M223.777 94.629l-18.307 29.618-18.307-29.618h36.614z" fill="#505050"/><path d="M182.178 94.629l-18.307 29.618-18.307-29.618h36.614z" fill="#b4b4b4"/><path d="M140.58 94.629l-18.308 29.618-18.307-29.618h36.614zm-83.198 0l-18.307 29.618L20.768 94.63h36.614z" fill="#505050"/><path d="M98.98 94.629l-18.307 29.618L62.366 94.63H98.98zm-36.275-1.728l18.307-29.618L99.319 92.9H62.705z" fill="#b4b4b4"/><path d="M21.106 92.901l18.307-29.618L57.72 92.9H21.106zm83.198 0l18.307-29.618L140.918 92.9h-36.614z" fill="#505050"/><path d="M145.903 92.901l18.307-29.618L182.517 92.9h-36.614z" fill="#b4b4b4"/><path d="M187.501 92.901l18.307-29.618L224.115 92.9h-36.614z" fill="#505050"/><path d="M203.316 63.283L185.009 92.9l-18.307-29.618h36.614zm-41.599 0L143.41 92.9l-18.307-29.618h36.614z" fill="#b4b4b4"/><path d="M78.52 63.283L60.213 92.9 41.906 63.283H78.52z" fill="#505050"/><path d="M120.118 63.041L101.811 92.66 83.504 63.041h36.614z" fill="#b4b4b4"/><path d="M42.486 61.02L60.793 31.4 79.1 61.02H42.486z" fill="#505050"/><path d="M84.084 61.262l18.307-29.619 18.307 29.619H84.084zm41.599-.242L143.99 31.4l18.307 29.619h-36.614zm41.599 0L185.59 31.4l18.307 29.619h-36.614zm57.384-29.618L206.36 61.02l-18.307-29.618h36.614z" fill="#b4b4b4"/><path d="M183.068 31.402L164.76 61.02l-18.307-29.618h36.614z" fill="#505050"/><path d="M141.469 31.402L123.162 61.02l-18.307-29.618h36.614z" fill="#b4b4b4"/><path d="M99.87 31.402L81.563 61.02 63.256 31.402H99.87zm-36.275-1.728L81.902.055l18.307 29.619H63.595z" fill="#505050"/><path d="M105.194 29.674L123.5.055l18.307 29.619h-36.613z" fill="#b4b4b4"/><path d="M146.792 29.674L165.1.055l18.307 29.619h-36.614z" fill="#505050"/><path d="M188.391 29.674L206.698.055l18.307 29.619h-36.614zM41.906 124.247L60.213 94.63l18.307 29.618H41.906z" fill="#b4b4b4"/><path d="M0 124.247L18.307 94.63l18.307 29.618H0zm208.027.128l18.307-29.618 18.307 29.618h-36.614z" fill="#505050"/><path d="M245.447 0L227.14 29.618 208.833 0h36.614z" fill="#b4b4b4"/></g></svg>