<?xml version="1.0" encoding="UTF-8" standalone="no"?>
<!-- Created with Inkscape (http://www.inkscape.org/) -->

<svg
   xmlns:dc="http://purl.org/dc/elements/1.1/"
   xmlns:cc="http://creativecommons.org/ns#"
   xmlns:rdf="http://www.w3.org/1999/02/22-rdf-syntax-ns#"
   xmlns:svg="http://www.w3.org/2000/svg"
   xmlns="http://www.w3.org/2000/svg"
   xmlns:sodipodi="http://sodipodi.sourceforge.net/DTD/sodipodi-0.dtd"
   xmlns:inkscape="http://www.inkscape.org/namespaces/inkscape"
   width="9.6632595in"
   height="4.8966708in"
   viewBox="0 0 245.44679 124.37543"
   version="1.1"
   id="svg8"
   inkscape:version="0.92.3 (2405546, 2018-03-11)"
   sodipodi:docname="_TriangleChange.svg">
  <defs
     id="defs2" />
  <sodipodi:namedview
     id="base"
     pagecolor="#ffffff"
     bordercolor="#666666"
     borderopacity="1.0"
     inkscape:pageopacity="0.0"
     inkscape:pageshadow="2"
     inkscape:zoom="0.7"
     inkscape:cx="619.13788"
     inkscape:cy="154.9115"
     inkscape:document-units="mm"
     inkscape:current-layer="layer1"
     showgrid="false"
     showguides="true"
     inkscape:window-width="1853"
     inkscape:window-height="1025"
     inkscape:window-x="67"
     inkscape:window-y="27"
     inkscape:window-maximized="1"
     units="in"
     width="25in"
     fit-margin-top="0"
     fit-margin-left="0"
     fit-margin-right="0"
     fit-margin-bottom="0" />
  <metadata
     id="metadata5">
    <rdf:RDF>
      <cc:Work
         rdf:about="">
        <dc:format>image/svg+xml</dc:format>
        <dc:type
           rdf:resource="http://purl.org/dc/dcmitype/StillImage" />
        <dc:title></dc:title>
      </cc:Work>
    </rdf:RDF>
  </metadata>
  <g
     inkscape:label="Layer 1"
     inkscape:groupmode="layer"
     id="layer1"
     transform="translate(23.123153,-71.2252)">
    <path
       style="fill:#505050;fill-opacity:1;fill-rule:evenodd;stroke:none;stroke-width:0.52750373;stroke-linecap:round;stroke-linejoin:bevel;stroke-miterlimit:4;stroke-dasharray:none;stroke-opacity:1;paint-order:stroke fill markers"
       d="m 200.65347,165.85405 c -6.10234,9.87278 -12.20467,19.74555 -18.30701,29.61833 -6.10232,-9.87278 -12.20466,-19.74555 -18.30698,-29.61833 12.20466,0 24.40933,0 36.61399,0 z"
       id="path815-3-37"
       inkscape:connector-curvature="0"
       sodipodi:nodetypes="cccc" />
    <path
       style="fill:#b4b4b4;fill-opacity:1;fill-rule:evenodd;stroke:none;stroke-width:0.52750373;stroke-linecap:round;stroke-linejoin:bevel;stroke-miterlimit:4;stroke-dasharray:none;stroke-opacity:1;paint-order:stroke fill markers"
       d="m 159.05467,165.85405 c -6.10232,9.87278 -12.20465,19.74555 -18.30698,29.61833 -6.10232,-9.87278 -12.20466,-19.74555 -18.30698,-29.61833 12.20466,0 24.40931,0 36.61396,0 z"
       id="path815-3-7-2"
       inkscape:connector-curvature="0"
       sodipodi:nodetypes="cccc" />
    <path
       style="fill:#505050;fill-opacity:1;fill-rule:evenodd;stroke:none;stroke-width:0.52750373;stroke-linecap:round;stroke-linejoin:bevel;stroke-miterlimit:4;stroke-dasharray:none;stroke-opacity:1;paint-order:stroke fill markers"
       d="m 117.4559,165.85405 c -6.10233,9.87278 -12.20466,19.74555 -18.306984,29.61833 -6.102333,-9.87278 -12.204676,-19.74555 -18.30702,-29.61833 12.204669,0 24.409334,0 36.614004,0 z"
       id="path815-5-2"
       inkscape:connector-curvature="0"
       sodipodi:nodetypes="cccc" />
    <path
       style="fill:#505050;fill-opacity:1;fill-rule:evenodd;stroke:none;stroke-width:0.52750373;stroke-linecap:round;stroke-linejoin:bevel;stroke-miterlimit:4;stroke-dasharray:none;stroke-opacity:1;paint-order:stroke fill markers"
       d="M 34.258378,165.85405 C 28.156044,175.72683 22.05371,185.5996 15.951376,195.47238 9.8490483,185.5996 3.7467221,175.72683 -2.3556055,165.85405 c 12.2046598,0 24.4093205,0 36.6139835,0 z"
       id="path815-3-3-8"
       inkscape:connector-curvature="0"
       sodipodi:nodetypes="cccc" />
    <path
       style="fill:#b4b4b4;fill-opacity:1;fill-rule:evenodd;stroke:none;stroke-width:0.52750373;stroke-linecap:round;stroke-linejoin:bevel;stroke-miterlimit:4;stroke-dasharray:none;stroke-opacity:1;paint-order:stroke fill markers"
       d="m 75.857112,165.85405 c -6.102329,9.87278 -12.204656,19.74555 -18.306985,29.61833 -6.102321,-9.87278 -12.204642,-19.74555 -18.306964,-29.61833 12.204649,0 24.4093,0 36.613949,0 z"
       id="path815-6-5-9"
       inkscape:connector-curvature="0"
       sodipodi:nodetypes="cccc" />
    <path
       style="fill:#b4b4b4;fill-opacity:1;fill-rule:evenodd;stroke:none;stroke-width:0.52750373;stroke-linecap:round;stroke-linejoin:bevel;stroke-miterlimit:4;stroke-dasharray:none;stroke-opacity:1;paint-order:stroke fill markers"
       d="m 39.581875,164.12632 c 6.102333,-9.87278 12.204666,-19.74555 18.306999,-29.61833 6.102327,9.87278 12.204654,19.74555 18.306981,29.61833 -12.20466,0 -24.40932,0 -36.61398,0 z"
       id="path815-3-2"
       inkscape:connector-curvature="0"
       sodipodi:nodetypes="cccc" />
    <path
       style="fill:#505050;fill-opacity:1;fill-rule:evenodd;stroke:none;stroke-width:0.52750373;stroke-linecap:round;stroke-linejoin:bevel;stroke-miterlimit:4;stroke-dasharray:none;stroke-opacity:1;paint-order:stroke fill markers"
       d="m -2.016871,164.12632 c 6.1023233,-9.87278 12.204644,-19.74555 18.306968,-29.61833 6.102323,9.87278 12.204647,19.74555 18.30697,29.61833 -12.204647,0 -24.409294,0 -36.613938,0 z"
       id="path815-6-9"
       inkscape:connector-curvature="0"
       sodipodi:nodetypes="cccc" />
    <path
       style="fill:#505050;fill-opacity:1;fill-rule:evenodd;stroke:none;stroke-width:0.52750373;stroke-linecap:round;stroke-linejoin:bevel;stroke-miterlimit:4;stroke-dasharray:none;stroke-opacity:1;paint-order:stroke fill markers"
       d="m 81.180653,164.12632 c 6.102328,-9.87278 12.204654,-19.74555 18.30697,-29.61833 6.102327,9.87278 12.204657,19.74555 18.306987,29.61833 -12.20466,0 -24.409302,0 -36.613957,0 z"
       id="path815-3-7-3"
       inkscape:connector-curvature="0"
       sodipodi:nodetypes="cccc" />
    <path
       style="fill:#b4b4b4;fill-opacity:1;fill-rule:evenodd;stroke:none;stroke-width:0.52750373;stroke-linecap:round;stroke-linejoin:bevel;stroke-miterlimit:4;stroke-dasharray:none;stroke-opacity:1;paint-order:stroke fill markers"
       d="m 122.7794,164.12632 c 6.10232,-9.87278 12.20465,-19.74555 18.30698,-29.61833 6.10235,9.87278 12.20468,19.74555 18.30703,29.61833 -12.20467,0 -24.40934,0 -36.61401,0 z"
       id="path815-5-1"
       inkscape:connector-curvature="0"
       sodipodi:nodetypes="cccc" />
    <path
       style="fill:#505050;fill-opacity:1;fill-rule:evenodd;stroke:none;stroke-width:0.52750373;stroke-linecap:round;stroke-linejoin:bevel;stroke-miterlimit:4;stroke-dasharray:none;stroke-opacity:1;paint-order:stroke fill markers"
       d="m 164.37822,164.12632 c 6.10232,-9.87278 12.20466,-19.74555 18.30698,-29.61833 6.10233,9.87278 12.20464,19.74555 18.30696,29.61833 -12.20464,0 -24.40929,0 -36.61394,0 z"
       id="path815-6-5-4"
       inkscape:connector-curvature="0"
       sodipodi:nodetypes="cccc" />
    <path
       style="fill:#b4b4b4;fill-opacity:1;fill-rule:evenodd;stroke:none;stroke-width:0.52750373;stroke-linecap:round;stroke-linejoin:bevel;stroke-miterlimit:4;stroke-dasharray:none;stroke-opacity:1;paint-order:stroke fill markers"
       d="m 180.19279,134.50801 c -6.10233,9.87278 -12.20466,19.74555 -18.30699,29.61833 -6.10232,-9.87278 -12.20466,-19.74555 -18.30698,-29.61833 12.20466,0 24.40931,0 36.61397,0 z"
       id="path815-3-7-2-6"
       inkscape:connector-curvature="0"
       sodipodi:nodetypes="cccc" />
    <path
       style="fill:#b4b4b4;fill-opacity:1;fill-rule:evenodd;stroke:none;stroke-width:0.52750373;stroke-linecap:round;stroke-linejoin:bevel;stroke-miterlimit:4;stroke-dasharray:none;stroke-opacity:1;paint-order:stroke fill markers"
       d="m 138.59402,134.50801 c -6.10233,9.87278 -12.20465,19.74555 -18.30698,29.61833 -6.10234,-9.87278 -12.20469,-19.74555 -18.30703,-29.61833 12.20467,0 24.40934,0 36.61401,0 z"
       id="path815-5-2-1"
       inkscape:connector-curvature="0"
       sodipodi:nodetypes="cccc" />
    <path
       style="fill:#505050;fill-opacity:1;fill-rule:evenodd;stroke:none;stroke-width:0.52750373;stroke-linecap:round;stroke-linejoin:bevel;stroke-miterlimit:4;stroke-dasharray:none;stroke-opacity:1;paint-order:stroke fill markers"
       d="m 55.396473,134.50801 c -6.102334,9.87278 -12.204669,19.74555 -18.307003,29.61833 -6.102327,-9.87278 -12.204656,-19.74555 -18.306983,-29.61833 12.204662,0 24.409324,0 36.613986,0 z"
       id="path815-3-3-8-0"
       inkscape:connector-curvature="0"
       sodipodi:nodetypes="cccc" />
    <path
       style="fill:#b4b4b4;fill-opacity:1;fill-rule:evenodd;stroke:none;stroke-width:0.52750373;stroke-linecap:round;stroke-linejoin:bevel;stroke-miterlimit:4;stroke-dasharray:none;stroke-opacity:1;paint-order:stroke fill markers"
       d="m 96.995228,134.26627 c -6.102329,9.87278 -12.204656,19.74555 -18.306984,29.61833 -6.102322,-9.87278 -12.204642,-19.74555 -18.306964,-29.61833 12.204649,0 24.409299,0 36.613948,0 z"
       id="path815-6-5-9-6"
       inkscape:connector-curvature="0"
       sodipodi:nodetypes="cccc" />
    <path
       style="fill:#505050;fill-opacity:1;fill-rule:evenodd;stroke:none;stroke-width:0.52750373;stroke-linecap:round;stroke-linejoin:bevel;stroke-miterlimit:4;stroke-dasharray:none;stroke-opacity:1;paint-order:stroke fill markers"
       d="m 19.362558,132.245 c 6.102333,-9.87278 12.204666,-19.74555 18.306999,-29.61833 6.102327,9.87278 12.204654,19.74555 18.306982,29.61833 -12.20466,0 -24.409321,0 -36.613981,0 z"
       id="path815-3-5"
       inkscape:connector-curvature="0"
       sodipodi:nodetypes="cccc" />
    <path
       style="fill:#b4b4b4;fill-opacity:1;fill-rule:evenodd;stroke:none;stroke-width:0.52750373;stroke-linecap:round;stroke-linejoin:bevel;stroke-miterlimit:4;stroke-dasharray:none;stroke-opacity:1;paint-order:stroke fill markers"
       d="m 60.96134,132.48676 c 6.102327,-9.87278 12.204654,-19.74555 18.306982,-29.61833 6.102328,9.87278 12.204655,19.74555 18.306983,29.61833 -12.204655,0 -24.409309,0 -36.613965,0 z"
       id="path815-3-7-7"
       inkscape:connector-curvature="0"
       sodipodi:nodetypes="cccc" />
    <path
       style="fill:#b4b4b4;fill-opacity:1;fill-rule:evenodd;stroke:none;stroke-width:0.52750373;stroke-linecap:round;stroke-linejoin:bevel;stroke-miterlimit:4;stroke-dasharray:none;stroke-opacity:1;paint-order:stroke fill markers"
       d="m 102.5601,132.245 c 6.10233,-9.87278 12.20466,-19.74555 18.30698,-29.61833 6.10235,9.87278 12.20468,19.74555 18.30703,29.61833 -12.20467,0 -24.40934,0 -36.61401,0 z"
       id="path815-5-6"
       inkscape:connector-curvature="0"
       sodipodi:nodetypes="cccc" />
    <path
       style="fill:#b4b4b4;fill-opacity:1;fill-rule:evenodd;stroke:none;stroke-width:0.52750373;stroke-linecap:round;stroke-linejoin:bevel;stroke-miterlimit:4;stroke-dasharray:none;stroke-opacity:1;paint-order:stroke fill markers"
       d="m 144.1589,132.245 c 6.10233,-9.87278 12.20466,-19.74555 18.30699,-29.61833 6.10232,9.87278 12.20464,19.74555 18.30697,29.61833 -12.20465,0 -24.40931,0 -36.61396,0 z"
       id="path815-6-5-6"
       inkscape:connector-curvature="0"
       sodipodi:nodetypes="cccc" />
    <path
       style="fill:#b4b4b4;fill-opacity:1;fill-rule:evenodd;stroke:none;stroke-width:0.52750373;stroke-linecap:round;stroke-linejoin:bevel;stroke-miterlimit:4;stroke-dasharray:none;stroke-opacity:1;paint-order:stroke fill markers"
       d="m 201.54319,102.62671 c -6.10234,9.87277 -12.20467,19.74555 -18.30701,29.61832 -6.10232,-9.87277 -12.20466,-19.74555 -18.30698,-29.61832 12.20466,0 24.40933,0 36.61399,0 z"
       id="path815-3-37-4"
       inkscape:connector-curvature="0"
       sodipodi:nodetypes="cccc" />
    <path
       style="fill:#505050;fill-opacity:1;fill-rule:evenodd;stroke:none;stroke-width:0.52750373;stroke-linecap:round;stroke-linejoin:bevel;stroke-miterlimit:4;stroke-dasharray:none;stroke-opacity:1;paint-order:stroke fill markers"
       d="m 159.94439,102.62671 c -6.10232,9.87277 -12.20465,19.74555 -18.30698,29.61832 -6.10233,-9.87277 -12.20466,-19.74555 -18.30699,-29.61832 12.20466,0 24.40932,0 36.61397,0 z"
       id="path815-3-7-2-2"
       inkscape:connector-curvature="0"
       sodipodi:nodetypes="cccc" />
    <path
       style="fill:#b4b4b4;fill-opacity:1;fill-rule:evenodd;stroke:none;stroke-width:0.52750373;stroke-linecap:round;stroke-linejoin:bevel;stroke-miterlimit:4;stroke-dasharray:none;stroke-opacity:1;paint-order:stroke fill markers"
       d="m 118.34562,102.62671 c -6.10233,9.87277 -12.20466,19.74555 -18.30699,29.61832 -6.102328,-9.87277 -12.204671,-19.74555 -18.307015,-29.61832 12.204669,0 24.409325,0 36.614005,0 z"
       id="path815-5-2-5"
       inkscape:connector-curvature="0"
       sodipodi:nodetypes="cccc" />
    <path
       style="fill:#505050;fill-opacity:1;fill-rule:evenodd;stroke:none;stroke-width:0.52750373;stroke-linecap:round;stroke-linejoin:bevel;stroke-miterlimit:4;stroke-dasharray:none;stroke-opacity:1;paint-order:stroke fill markers"
       d="m 76.746831,102.62671 c -6.102329,9.87277 -12.204656,19.74555 -18.306984,29.61832 -6.102322,-9.87277 -12.204643,-19.74555 -18.306964,-29.61832 12.204649,0 24.409299,0 36.613948,0 z"
       id="path815-6-5-9-7"
       inkscape:connector-curvature="0"
       sodipodi:nodetypes="cccc" />
    <path
       style="fill:#505050;fill-opacity:1;fill-rule:evenodd;stroke:none;stroke-width:0.52750373;stroke-linecap:round;stroke-linejoin:bevel;stroke-miterlimit:4;stroke-dasharray:none;stroke-opacity:1;paint-order:stroke fill markers"
       d="m 40.471589,100.89896 c 6.102333,-9.872776 12.204665,-19.745552 18.306998,-29.618328 6.102328,9.872776 12.204655,19.745552 18.306982,29.618328 -12.20466,0 -24.40932,0 -36.61398,0 z"
       id="path815-3-2-0"
       inkscape:connector-curvature="0"
       sodipodi:nodetypes="cccc" />
    <path
       style="fill:#b4b4b4;fill-opacity:1;fill-rule:evenodd;stroke:none;stroke-width:0.52750373;stroke-linecap:round;stroke-linejoin:bevel;stroke-miterlimit:4;stroke-dasharray:none;stroke-opacity:1;paint-order:stroke fill markers"
       d="m 82.07037,100.89896 c 6.102328,-9.872776 12.204655,-19.745552 18.30697,-29.618328 6.10233,9.872776 12.20466,19.745552 18.30699,29.618328 -12.20466,0 -24.409305,0 -36.61396,0 z"
       id="path815-3-7-3-8"
       inkscape:connector-curvature="0"
       sodipodi:nodetypes="cccc" />
    <path
       style="fill:#505050;fill-opacity:1;fill-rule:evenodd;stroke:none;stroke-width:0.52750373;stroke-linecap:round;stroke-linejoin:bevel;stroke-miterlimit:4;stroke-dasharray:none;stroke-opacity:1;paint-order:stroke fill markers"
       d="m 123.66914,100.89896 c 6.10232,-9.872776 12.20466,-19.745552 18.30698,-29.618328 6.10235,9.872776 12.20468,19.745552 18.30703,29.618328 -12.20467,0 -24.40934,0 -36.61401,0 z"
       id="path815-5-1-6"
       inkscape:connector-curvature="0"
       sodipodi:nodetypes="cccc" />
    <path
       style="fill:#b4b4b4;fill-opacity:1;fill-rule:evenodd;stroke:none;stroke-width:0.52750373;stroke-linecap:round;stroke-linejoin:bevel;stroke-miterlimit:4;stroke-dasharray:none;stroke-opacity:1;paint-order:stroke fill markers"
       d="m 165.26793,100.89896 c 6.10232,-9.872776 12.20466,-19.745552 18.30698,-29.618328 6.10233,9.872776 12.20465,19.745552 18.30697,29.618328 -12.20464,0 -24.4093,0 -36.61395,0 z"
       id="path815-6-5-4-8"
       inkscape:connector-curvature="0"
       sodipodi:nodetypes="cccc" />
    <path
       style="fill:#b4b4b4;fill-opacity:1;fill-rule:evenodd;stroke:none;stroke-width:0.52750373;stroke-linecap:round;stroke-linejoin:bevel;stroke-miterlimit:4;stroke-dasharray:none;stroke-opacity:1;paint-order:stroke fill markers"
       d="m 18.782492,195.47238 c 6.102333,-9.87279 12.204666,-19.74556 18.306999,-29.61833 6.102327,9.87278 12.204653,19.74555 18.306982,29.61833 -12.20466,0 -24.409321,0 -36.613981,0 z"
       id="path815-3-5-2"
       inkscape:connector-curvature="0"
       sodipodi:nodetypes="cccc" />
    <path
       style="fill:#505050;fill-opacity:1;fill-rule:evenodd;stroke:none;stroke-width:0.52750373;stroke-linecap:round;stroke-linejoin:bevel;stroke-miterlimit:4;stroke-dasharray:none;stroke-opacity:1;paint-order:stroke fill markers"
       d="m -23.123153,195.47238 c 6.102333,-9.87279 12.204666,-19.74556 18.3069978,-29.61833 6.102327,9.87278 12.2046525,19.74555 18.3069802,29.61833 -12.2046582,0 -24.409318,0 -36.613978,0 z"
       id="path815-3-5-2-6"
       inkscape:connector-curvature="0"
       sodipodi:nodetypes="cccc" />
    <path
       style="fill:#505050;fill-opacity:1;fill-rule:evenodd;stroke:none;stroke-width:0.52750373;stroke-linecap:round;stroke-linejoin:bevel;stroke-miterlimit:4;stroke-dasharray:none;stroke-opacity:1;paint-order:stroke fill markers"
       d="m 184.90382,195.60064 c 6.10233,-9.87279 12.20467,-19.74556 18.30701,-29.61833 6.10233,9.87278 12.20466,19.74555 18.30699,29.61833 -12.20467,0 -24.40933,0 -36.614,0 z"
       id="path815-3-5-2-6-6"
       inkscape:connector-curvature="0"
       sodipodi:nodetypes="cccc" />
    <path
       style="fill:#b4b4b4;fill-opacity:1;fill-rule:evenodd;stroke:none;stroke-width:0.52750373;stroke-linecap:round;stroke-linejoin:bevel;stroke-miterlimit:4;stroke-dasharray:none;stroke-opacity:1;paint-order:stroke fill markers"
       d="m 222.32365,71.2252 c -6.10235,9.87277 -12.20468,19.745545 -18.30702,29.6183 -6.10232,-9.872755 -12.20466,-19.74553 -18.30698,-29.6183 12.20466,0 24.40933,0 36.614,0 z"
       id="path815-3-37-4-4"
       inkscape:connector-curvature="0"
       sodipodi:nodetypes="cccc" />
  </g>
</svg>
