<svg width="468" height="468" xmlns="http://www.w3.org/2000/svg"><path d="M307.41 119.241c18.443-50.387-24.672-116.186-37.192-117.46l-36.98 33.625-37.07-33.524c-10.128 6.768-55.452 67.226-36.866 120.885-47.139-28.138-129.492-16.473-134.7-6.072a1736300.2 1736300.2 0 0 0 23.83 42.273c-23.313 10.813-23.313 10.813-46.627 21.62 3.968 10.82 54.694 66.919 113.246 73.152-47.572 37.654-56.7 104.044-47.401 111.749 25.855-3.753 25.855-3.753 51.707-7.5l8.258 46.887c12.575-.08 85.337-36.172 106.023-77.434 20.826 59.959 95.281 82.116 106.234 76.475 4.065-23.452 4.065-23.452 8.125-46.91 25.867 3.682 25.867 3.682 51.39 6.706 3.464-11.527 2.467-81.889-37.803-120.634 65.937-7.616 106.01-53.083 103.482-64.273-23.343-10.75-23.343-10.75-46.686-21.493l23.716-42.34c-10.227-6.637-87.629-27.027-134.686 4.566" stroke-width="1.929" stroke="#fff" fill="#faa"/><path d="M295.092 133.265c15.37-41.992-20.558-96.825-30.989-97.886l-30.816 28.02-30.893-27.936c-8.439 5.64-46.21 56.021-30.721 100.741-39.283-23.452-107.91-13.73-112.25-5.064l19.86 35.23-38.858 18.018c3.306 9.016 45.58 55.76 94.372 60.954-39.643 31.382-47.25 86.705-39.503 93.128l43.092-6.252 6.882 39.074c10.48-.067 71.11-30.146 88.352-64.531 17.352 49.966 79.4 68.432 88.528 63.732 3.388-19.547 3.388-19.547 6.77-39.089 21.557 3.062 21.557 3.062 42.825 5.582 2.89-9.602 2.056-68.236-31.503-100.528 54.947-6.346 88.345-44.235 86.238-53.56-19.456-8.956-19.456-8.956-38.906-17.907l19.76-35.284c-8.516-5.532-73.025-22.524-112.24 3.804" stroke-width="1.464" stroke="#faa" fill="#fff"/><path d="M338.346 231.315l-100.032-17-5.163 89.561-5.135-89.264-92.221 28.17 88.714-36.594-53.375-75.369 61.511 69.866 62.731-70.036-54.2 75.06 97.17 25.606z" fill-rule="evenodd" fill="#faa"/><path d="M165.504 193.035l64.657 10.99 3.34-57.894 3.322 57.703 59.605-18.21-57.342 23.65 34.502 48.721-39.758-45.16-40.55 45.27 35.033-48.518-62.81-16.552z" fill-rule="evenodd" fill="#faa"/><path d="M264.379 203.325a30.856 27.98-.078 1 1-61.71.084 30.856 27.98-.078 1 1 61.71-.084z" stroke="#fff" fill-rule="evenodd" fill="#faa"/><path d="M185.517 195.292a9.411 8.534-.078 1 1-18.821.026 9.411 8.534-.078 1 1 18.82-.026zm56.22-48.639a9.411 8.534-.078 1 1-18.821.026 9.411 8.534-.078 1 1 18.82-.026zm62.752 37.816a9.411 8.534-.078 1 1-18.821.025 9.411 8.534-.078 1 1 18.82-.025zm-95.268 64.089a9.411 8.534-.078 1 1-18.821.025 9.411 8.534-.078 1 1 18.821-.025zm73.152 4.641a9.411 8.534-.078 1 1-18.821.026 9.411 8.534-.078 1 1 18.82-.026z" fill-rule="evenodd" fill="#faa"/></svg>